<?xml version="1.0" standalone="no"?>
<!DOCTYPE svg PUBLIC "-//W3C//DTD SVG 20010904//EN"
 "http://www.w3.org/TR/2001/REC-SVG-20010904/DTD/svg10.dtd">
<svg version="1.0" xmlns="http://www.w3.org/2000/svg"
 width="1354.000000pt" height="1354.000000pt" viewBox="0 0 1354.000000 1354.000000"
 preserveAspectRatio="xMidYMid meet">
<metadata>
Created by potrace 1.14, written by Peter Selinger 2001-2017
</metadata>
<g transform="translate(0.000000,1354.000000) scale(0.100000,-0.100000)"
fill="#000000" stroke="none">
<path d="M9085 12955 c18 -177 24 -243 30 -330 3 -38 8 -90 10 -115 2 -25 7
-103 10 -175 3 -71 8 -175 11 -230 5 -121 5 -627 0 -780 -6 -156 -21 -412 -32
-539 -3 -38 -7 -92 -9 -120 -2 -28 -6 -71 -9 -96 -3 -25 -8 -70 -11 -100 -3
-30 -7 -65 -9 -77 -3 -12 -7 -52 -10 -90 -4 -37 -8 -75 -11 -83 -2 -8 -6 -37
-10 -65 -3 -27 -8 -63 -10 -80 -3 -16 -7 -46 -9 -65 -26 -209 -141 -774 -222
-1092 -223 -876 -589 -1803 -1006 -2548 -17 -30 -40 -71 -51 -90 -118 -211
-244 -415 -413 -670 -171 -259 -387 -557 -538 -744 -175 -217 -369 -446 -476
-561 -155 -167 -222 -236 -370 -385 -151 -151 -316 -307 -445 -421 -27 -24
-59 -53 -70 -64 -12 -11 -43 -38 -70 -60 -26 -22 -53 -45 -59 -51 -25 -23
-305 -252 -366 -299 -99 -75 -101 -78 -54 -71 79 12 111 18 205 37 52 11 104
21 115 23 252 51 890 250 1091 342 17 8 34 14 38 14 3 0 30 11 58 24 29 13 97
42 152 66 104 44 446 212 550 270 219 122 398 232 555 339 136 93 143 98 260
185 271 205 408 324 656 571 177 177 273 280 388 420 86 104 83 101 168 215
44 58 90 119 102 135 43 57 213 321 281 435 136 229 293 550 397 810 52 131
117 304 123 330 2 8 11 35 20 60 19 54 103 342 109 376 3 14 12 49 20 78 9 29
18 70 22 92 3 21 8 42 10 45 4 8 50 239 59 299 4 24 8 47 10 50 2 3 6 34 10
70 4 36 9 67 10 70 2 3 6 34 10 69 4 34 8 70 10 79 1 9 6 55 10 102 4 47 9 99
11 115 23 228 23 848 0 1035 -3 19 -7 67 -11 105 -8 89 -24 216 -40 320 -14
92 -26 164 -30 185 -3 14 -10 52 -16 85 -48 267 -191 770 -294 1035 -129 333
-284 662 -426 908 -28 48 -60 103 -71 122 -37 63 -209 328 -251 387 -23 32
-50 69 -59 83 -9 14 -27 36 -38 50 l-21 25 6 -60z"/>
<path d="M12915 9103 c-111 -399 -272 -874 -380 -1118 -7 -16 -50 -115 -96
-220 -209 -479 -515 -1030 -822 -1478 -169 -248 -416 -573 -543 -717 -12 -14
-56 -64 -97 -112 -141 -163 -255 -284 -452 -478 -251 -247 -398 -379 -635
-570 -786 -632 -1618 -1095 -2615 -1453 -71 -26 -377 -125 -405 -132 -8 -2
-96 -26 -195 -53 -184 -51 -467 -119 -610 -146 -44 -9 -91 -18 -105 -21 -48
-10 -142 -26 -173 -30 -18 -2 -61 -9 -97 -15 -104 -18 -125 -21 -240 -35 -22
-3 -57 -7 -77 -10 -45 -6 -115 -14 -198 -21 -33 -3 -69 -7 -80 -9 -11 -2 -35
-4 -54 -4 -19 -1 -32 -3 -30 -6 5 -4 182 -54 247 -69 9 -2 56 -13 103 -24 79
-19 351 -71 459 -87 25 -4 52 -9 61 -10 9 -2 60 -9 114 -15 54 -6 105 -13 114
-15 9 -1 54 -6 101 -10 47 -4 98 -8 115 -10 212 -25 963 -25 1135 0 14 2 57 6
95 10 69 6 136 13 185 20 209 31 257 38 265 39 6 2 33 6 60 11 28 4 120 23
205 42 192 42 164 36 300 72 63 17 122 33 130 35 65 17 433 142 485 166 11 5
63 27 115 49 1276 528 2360 1541 2994 2796 115 228 151 306 222 480 69 170
162 428 180 500 1 6 14 48 29 95 24 80 98 365 109 420 2 14 12 58 20 97 9 40
18 87 21 105 3 18 10 56 15 83 12 60 17 94 26 160 3 28 7 57 9 65 1 8 6 40 9
70 4 30 9 71 11 90 3 19 7 64 10 100 3 36 7 81 10 100 17 139 24 627 11 855
-11 190 -11 198 -32 380 -3 28 -5 58 -5 68 0 31 -8 18 -24 -40z"/>
<path d="M4247 7224 c-1 -1 -56 -5 -122 -8 -66 -4 -133 -8 -150 -10 -16 -2
-59 -7 -95 -10 -36 -4 -76 -8 -90 -10 -14 -2 -46 -7 -71 -10 -25 -4 -57 -9
-70 -11 -137 -23 -207 -36 -224 -39 -65 -13 -223 -51 -300 -73 -49 -14 -97
-26 -105 -28 -8 -2 -78 -25 -155 -51 -282 -95 -569 -226 -830 -379 -55 -32
-271 -173 -295 -192 -8 -6 -52 -39 -97 -73 -249 -187 -513 -440 -738 -711
-143 -172 -343 -467 -450 -664 -20 -38 -42 -76 -47 -82 -6 -7 -7 -13 -3 -13 4
0 3 -6 -3 -13 -32 -38 -164 -331 -238 -525 -36 -95 -114 -340 -114 -357 0 -10
30 8 77 46 318 252 733 455 1123 548 69 17 139 32 155 35 17 2 44 7 60 10 186
35 596 41 752 12 10 -2 41 -7 68 -10 157 -21 434 -100 603 -172 218 -93 464
-240 652 -390 119 -95 351 -329 450 -454 46 -58 118 -158 160 -222 l77 -117
80 112 c434 605 730 1256 902 1982 16 72 33 144 36 160 20 107 46 267 51 305
2 25 7 52 9 60 2 8 7 47 11 85 3 39 8 77 9 86 2 9 6 63 10 120 4 57 9 122 11
144 4 47 4 536 0 580 -2 17 -6 81 -10 143 -5 62 -12 115 -18 118 -10 6 -235
45 -246 42 -4 -1 -29 1 -57 5 -146 20 -323 30 -563 31 -112 1 -204 1 -205 0z"/>
<path d="M13439 4287 c-79 -98 -536 -546 -674 -662 -33 -27 -62 -53 -65 -56
-36 -45 -600 -478 -708 -544 -9 -6 -70 -45 -134 -88 -128 -84 -354 -222 -458
-279 -36 -20 -99 -55 -140 -78 -219 -122 -663 -325 -919 -422 -250 -95 -685
-237 -804 -263 -12 -2 -85 -20 -162 -40 -158 -39 -138 -35 -306 -69 -152 -30
-168 -33 -244 -46 -33 -5 -69 -12 -81 -14 -12 -2 -45 -7 -75 -11 -30 -4 -56
-8 -59 -10 -3 -2 -35 -6 -70 -10 -36 -3 -76 -8 -90 -10 -14 -2 -47 -7 -75 -10
-27 -3 -70 -7 -95 -10 -87 -10 -244 -22 -415 -31 -250 -14 -794 -8 -1005 11
-268 24 -415 40 -510 55 -30 5 -75 12 -100 14 -25 3 -58 8 -75 11 -16 3 -43 7
-60 10 -16 3 -41 7 -55 10 -14 3 -61 12 -105 20 -44 8 -93 17 -110 20 -24 5
-284 63 -355 80 -50 12 -216 58 -222 62 -5 2 -8 2 -8 0 0 -6 196 -151 275
-204 400 -268 911 -518 1365 -670 58 -19 112 -36 120 -39 8 -2 69 -19 135 -39
66 -19 149 -42 185 -51 36 -9 72 -17 80 -19 73 -18 321 -66 386 -74 44 -7 89
-13 100 -15 191 -36 741 -53 1039 -33 61 4 119 9 130 11 11 2 54 7 95 11 41 4
77 8 80 10 3 1 32 6 65 10 33 3 94 13 135 21 41 8 89 17 107 20 25 4 258 59
335 78 305 79 686 227 998 389 182 94 499 290 615 379 6 4 64 49 130 100 322
246 657 576 927 913 76 95 206 268 233 310 10 16 22 34 28 40 22 25 186 283
259 410 139 238 348 669 367 757 1 4 9 24 17 44 8 20 14 38 12 40 -2 2 -20
-16 -39 -39z"/>
</g>
</svg>
