<?xml version="1.0" encoding="utf-8"?>
<!-- Generator: Adobe Illustrator 27.7.0, SVG Export Plug-In . SVG Version: 6.00 Build 0)  -->
<svg version="1.1" id="Ebene_1" xmlns="http://www.w3.org/2000/svg" xmlns:xlink="http://www.w3.org/1999/xlink" x="0px" y="0px"
	 viewBox="0 0 291.3 282" style="enable-background:new 0 0 291.3 282;" xml:space="preserve">
<style type="text/css">
	.st0{fill:#F39123;}
</style>
<g>
	<g>
		<path class="st0" d="M145.7,268.9L27.2,150.4c-3.9-3.9-3.9-10.2,0-14.1c3.9-3.9,10.2-3.9,14.1,0l104.3,104.3L250,136.3
			c3.9-3.9,10.2-3.9,14.1,0c3.9,3.9,3.9,10.2,0,14.1L145.7,268.9z"/>
	</g>
	<g>
		<path class="st0" d="M145.7,195.3L36.9,86.5c-3.9-3.9-3.9-10.2,0-14.1c3.9-3.9,10.2-3.9,14.1,0l94.7,94.7l94.6-94.7
			c3.9-3.9,10.2-3.9,14.1,0c3.9,3.9,3.9,10.2,0,14.1L145.7,195.3z"/>
	</g>
	<g>
		<path class="st0" d="M145.7,127.1L52.9,34.3c-3.9-3.9-3.9-10.2,0-14.1s10.2-3.9,14.1,0l78.6,78.6l78.6-78.6
			c3.9-3.9,10.2-3.9,14.1,0c3.9,3.9,3.9,10.2,0,14.1L145.7,127.1z"/>
	</g>
</g>
</svg>
